<svg
  width="368"
  height="283"
  viewBox="0 0 368 283"
  fill="none"
  xmlns="http://www.w3.org/2000/svg"
>
  <path
    d="M84.7353 195.853L113.227 151.009L49.4188 110.399L16.4665 162.264L69.244 195.853H84.7353Z"
    fill="#F0F0F0"
  />
  <path
    d="M125.111 209.842H54.5355V195.623H125.111V209.842ZM55.4521 208.925H124.194V196.54H55.4521V208.925Z"
    fill="#3F3D56"
  />
  <path
    d="M116.403 207.319C118.935 207.319 120.986 205.266 120.986 202.733C120.986 200.199 118.935 198.146 116.403 198.146C113.872 198.146 111.821 200.199 111.821 202.733C111.821 205.266 113.872 207.319 116.403 207.319Z"
    fill="#0804B8"
  />
  <path
    d="M103.572 207.319C106.103 207.319 108.154 205.266 108.154 202.733C108.154 200.199 106.103 198.146 103.572 198.146C101.041 198.146 98.9888 200.199 98.9888 202.733C98.9888 205.266 101.041 207.319 103.572 207.319Z"
    fill="#0804B8"
  />
  <path
    d="M90.7397 207.319C93.2708 207.319 95.3226 205.266 95.3226 202.733C95.3226 200.199 93.2708 198.146 90.7397 198.146C88.2087 198.146 86.1569 200.199 86.1569 202.733C86.1569 205.266 88.2087 207.319 90.7397 207.319Z"
    fill="#0804B8"
  />
  <path
    d="M77.9078 207.319C80.4388 207.319 82.4906 205.266 82.4906 202.733C82.4906 200.199 80.4388 198.146 77.9078 198.146C75.3768 198.146 73.325 200.199 73.325 202.733C73.325 205.266 75.3768 207.319 77.9078 207.319Z"
    fill="#0804B8"
  />
  <path
    d="M65.076 207.319C67.607 207.319 69.6588 205.266 69.6588 202.733C69.6588 200.199 67.607 198.146 65.076 198.146C62.545 198.146 60.4932 200.199 60.4932 202.733C60.4932 205.266 62.545 207.319 65.076 207.319Z"
    fill="#0804B8"
  />
  <path
    d="M208.976 51.8298V16.9708H226.391V0H141.151V85.3128H214.017V76.9716C214.017 75.4167 214.323 73.877 214.918 72.4405C215.513 71.004 216.384 69.6987 217.482 68.5992C218.581 67.4998 219.885 66.6276 221.32 66.0326C222.756 65.4375 224.294 65.1313 225.848 65.1313H226.391V51.8298H208.976Z"
    fill="#F0F0F0"
  />
  <path
    d="M303.382 220.162H246.555V232.088H303.382V220.162Z"
    fill="#0804B8"
  />
  <path d="M315.756 161.452H232.349V172.46H315.756V161.452Z" fill="#F0F0F0" />
  <path d="M356.543 282.083H0V283H356.543V282.083Z" fill="#3F3D56" />
  <path
    d="M330.048 283H225.848C222.59 282.996 219.466 281.699 217.163 279.394C214.859 277.088 213.563 273.962 213.559 270.701V76.9716C213.563 73.7109 214.859 70.5847 217.162 68.279C219.466 65.9733 222.59 64.6763 225.848 64.6726H330.048C333.306 64.6763 336.429 65.9733 338.733 68.279C341.037 70.5847 342.333 73.7109 342.336 76.9716V270.701C342.333 273.962 341.037 277.088 338.733 279.394C336.429 281.699 333.306 282.996 330.048 283V283ZM225.848 65.5899C222.833 65.5934 219.942 66.7936 217.81 68.9274C215.678 71.0611 214.479 73.9541 214.476 76.9716V270.701C214.479 273.719 215.678 276.612 217.81 278.745C219.942 280.879 222.833 282.079 225.848 282.083H330.048C333.063 282.079 335.953 280.879 338.085 278.745C340.217 276.612 341.416 273.719 341.42 270.701V76.9716C341.416 73.9541 340.217 71.0611 338.085 68.9274C335.953 66.7936 333.063 65.5934 330.048 65.5899H225.848Z"
    fill="#3F3D56"
  />
  <path
    d="M265.574 73.846C265.03 73.846 264.499 73.6846 264.046 73.3823C263.594 73.0799 263.242 72.65 263.034 72.1472C262.826 71.6443 262.771 71.091 262.877 70.5571C262.983 70.0233 263.245 69.5329 263.63 69.148C264.014 68.7631 264.504 68.501 265.038 68.3949C265.571 68.2887 266.124 68.3432 266.626 68.5515C267.129 68.7598 267.558 69.1125 267.86 69.5651C268.163 70.0176 268.324 70.5497 268.324 71.094C268.323 71.8237 268.033 72.5232 267.518 73.0391C267.002 73.555 266.303 73.8452 265.574 73.846V73.846ZM265.574 69.2593C265.212 69.2593 264.857 69.3669 264.556 69.5685C264.254 69.7701 264.019 70.0567 263.881 70.3919C263.742 70.7272 263.705 71.096 263.776 71.4519C263.847 71.8078 264.022 72.1347 264.278 72.3913C264.534 72.6479 264.861 72.8226 265.216 72.8934C265.572 72.9642 265.941 72.9279 266.276 72.789C266.611 72.6502 266.897 72.415 267.098 72.1133C267.3 71.8116 267.407 71.4569 267.407 71.094C267.407 70.6076 267.213 70.1412 266.87 69.7973C266.526 69.4533 266.06 69.2598 265.574 69.2593V69.2593Z"
    fill="#3F3D56"
  />
  <path
    d="M292.613 70.6353H272.448V71.5527H292.613V70.6353Z"
    fill="#3F3D56"
  />
  <path
    d="M334.087 77.9741V114.668C324.364 114.667 315.039 110.801 308.163 103.92C301.288 97.0386 297.425 87.7057 297.425 77.9741H334.087Z"
    fill="#0804B8"
  />
  <path
    d="M334.545 270.616H221.35V77.5154H334.545V270.616ZM222.267 269.699H333.629V78.4327H222.267V269.699Z"
    fill="#3F3D56"
  />
  <path
    opacity="0.1"
    d="M307.507 112.374C314.341 112.374 319.88 106.83 319.88 99.9903C319.88 93.1507 314.341 87.6062 307.507 87.6062C300.673 87.6062 295.133 93.1507 295.133 99.9903C295.133 106.83 300.673 112.374 307.507 112.374Z"
    fill="black"
  />
  <path
    d="M305.674 113.75C312.507 113.75 318.047 108.206 318.047 101.366C318.047 94.5267 312.507 88.9822 305.674 88.9822C298.84 88.9822 293.3 94.5267 293.3 101.366C293.3 108.206 298.84 113.75 305.674 113.75Z"
    fill="#0804B8"
  />
  <path
    d="M243.806 85.3128H226.391V91.7342H243.806V85.3128Z"
    fill="#3F3D56"
  />
  <path d="M253.43 146.316H236.015V152.737H253.43V146.316Z" fill="#3F3D56" />
  <path
    d="M320.339 170.167H236.015V158.241H320.339V170.167ZM236.932 169.25H319.422V159.159H236.932V169.25Z"
    fill="#3F3D56"
  />
  <path
    d="M315.756 196.311H232.349V207.319H315.756V196.311Z"
    fill="#F0F0F0"
  />
  <path d="M253.43 181.175H236.015V187.596H253.43V181.175Z" fill="#3F3D56" />
  <path
    d="M320.339 205.026H236.015V193.1H320.339V205.026ZM236.932 204.109H319.422V194.018H236.932V204.109Z"
    fill="#3F3D56"
  />
  <path
    d="M307.049 229.335H249.305V216.493H307.049V229.335ZM250.222 228.418H306.132V217.41H250.222V228.418Z"
    fill="#3F3D56"
  />
  <path
    d="M318.047 165.58C318.047 166.524 317.756 167.446 317.213 168.218C316.671 168.991 315.903 169.577 315.015 169.896C314.128 170.216 313.163 170.253 312.253 170.004C311.343 169.754 310.532 169.23 309.931 168.502L309.927 168.497C309.489 167.966 309.176 167.342 309.012 166.672C308.848 166.003 308.837 165.305 308.979 164.631C309.122 163.956 309.414 163.323 309.835 162.777C310.256 162.231 310.794 161.788 311.41 161.479C312.026 161.17 312.703 161.005 313.392 160.994C314.081 160.983 314.763 161.128 315.388 161.418C316.013 161.708 316.564 162.134 317.002 162.667C317.439 163.199 317.751 163.824 317.914 164.493C317.914 164.494 317.915 164.494 317.915 164.495C317.915 164.495 317.915 164.496 317.916 164.496C317.916 164.497 317.917 164.497 317.917 164.497C317.918 164.498 317.918 164.498 317.919 164.498C318.004 164.852 318.047 165.216 318.047 165.58V165.58Z"
    fill="#0804B8"
  />
  <path
    opacity="0.1"
    d="M318.047 165.58C318.047 166.524 317.756 167.446 317.213 168.218C316.671 168.991 315.903 169.577 315.015 169.896C314.127 170.216 313.163 170.253 312.253 170.004C311.343 169.754 310.532 169.23 309.931 168.502L309.927 168.497C309.842 168.143 309.799 167.78 309.798 167.415C309.798 166.471 310.09 165.549 310.632 164.777C311.175 164.005 311.942 163.419 312.83 163.099C313.718 162.779 314.683 162.742 315.593 162.991C316.503 163.241 317.313 163.765 317.914 164.493C317.914 164.494 317.914 164.494 317.915 164.495C317.915 164.496 317.915 164.496 317.916 164.496C317.916 164.497 317.917 164.497 317.917 164.497C317.918 164.498 317.918 164.498 317.919 164.498C318.004 164.852 318.047 165.216 318.047 165.58V165.58Z"
    fill="black"
  />
  <path
    d="M315.298 172.919C317.829 172.919 319.88 170.865 319.88 168.332C319.88 165.799 317.829 163.746 315.298 163.746C312.767 163.746 310.715 165.799 310.715 168.332C310.715 170.865 312.767 172.919 315.298 172.919Z"
    fill="#0804B8"
  />
  <path
    d="M318.047 200.439C318.047 201.383 317.756 202.305 317.213 203.077C316.671 203.85 315.903 204.436 315.015 204.755C314.128 205.075 313.163 205.112 312.253 204.863C311.343 204.613 310.532 204.089 309.931 203.361L309.927 203.356C309.489 202.825 309.176 202.201 309.012 201.531C308.848 200.862 308.837 200.164 308.979 199.49C309.122 198.815 309.414 198.182 309.835 197.636C310.256 197.09 310.794 196.647 311.41 196.338C312.026 196.029 312.703 195.864 313.392 195.853C314.081 195.842 314.763 195.987 315.388 196.277C316.013 196.567 316.564 196.993 317.002 197.526C317.439 198.058 317.751 198.683 317.914 199.352C317.914 199.353 317.915 199.353 317.915 199.354C317.915 199.355 317.915 199.355 317.916 199.355C317.916 199.356 317.917 199.356 317.917 199.356C317.918 199.357 317.918 199.357 317.919 199.357C318.004 199.711 318.047 200.075 318.047 200.439V200.439Z"
    fill="#0804B8"
  />
  <path
    opacity="0.1"
    d="M318.047 200.439C318.047 201.383 317.756 202.305 317.213 203.077C316.671 203.85 315.903 204.436 315.015 204.755C314.127 205.075 313.163 205.112 312.253 204.863C311.343 204.613 310.532 204.089 309.931 203.361L309.927 203.356C309.842 203.002 309.799 202.638 309.798 202.274C309.798 201.33 310.09 200.408 310.632 199.636C311.175 198.864 311.942 198.278 312.83 197.958C313.718 197.638 314.683 197.601 315.593 197.85C316.503 198.1 317.313 198.624 317.914 199.352C317.914 199.353 317.914 199.353 317.915 199.354C317.915 199.354 317.915 199.355 317.916 199.355C317.916 199.356 317.917 199.356 317.917 199.356C317.918 199.357 317.918 199.357 317.919 199.357C318.004 199.711 318.047 200.075 318.047 200.439V200.439Z"
    fill="black"
  />
  <path
    d="M315.298 207.778C317.829 207.778 319.88 205.724 319.88 203.191C319.88 200.658 317.829 198.605 315.298 198.605C312.767 198.605 310.715 200.658 310.715 203.191C310.715 205.724 312.767 207.778 315.298 207.778Z"
    fill="#0804B8"
  />
  <path
    d="M238.306 22.0162H214.476V45.8671H238.306V22.0162Z"
    fill="#F0F0F0"
  />
  <path
    d="M307.507 39.4457C306.419 39.4457 305.356 39.1229 304.452 38.5181C303.547 37.9133 302.842 37.0537 302.426 36.048C302.01 35.0422 301.901 33.9356 302.113 32.8679C302.325 31.8002 302.849 30.8195 303.618 30.0497C304.387 29.28 305.367 28.7557 306.434 28.5434C307.501 28.331 308.606 28.44 309.611 28.8566C310.616 29.2732 311.475 29.9786 312.079 30.8838C312.684 31.7889 313.006 32.8531 313.006 33.9417C313.005 35.4009 312.425 36.8 311.394 37.8318C310.363 38.8637 308.965 39.4441 307.507 39.4457V39.4457ZM307.507 29.355C306.6 29.355 305.714 29.624 304.961 30.128C304.207 30.6319 303.62 31.3483 303.273 32.1864C302.926 33.0245 302.835 33.9467 303.012 34.8365C303.189 35.7262 303.625 36.5435 304.266 37.185C304.907 37.8264 305.724 38.2633 306.613 38.4402C307.502 38.6172 308.423 38.5264 309.261 38.1792C310.098 37.8321 310.814 37.2442 311.317 36.4899C311.821 35.7356 312.09 34.8488 312.09 33.9417C312.088 32.7256 311.605 31.5598 310.746 30.6999C309.887 29.84 308.722 29.3563 307.507 29.355V29.355Z"
    fill="#3F3D56"
  />
  <path
    d="M186.521 116.044H174.605V104.118H186.521V116.044ZM175.522 115.126H185.604V105.036H175.522V115.126Z"
    fill="#3F3D56"
  />
  <path
    d="M368 205.026H356.085V193.1H368V205.026ZM357.001 204.109H367.083V194.018H357.001V204.109Z"
    fill="#3F3D56"
  />
  <path
    d="M132.903 125.064L134.948 126.166L141.905 129.92L153.138 135.977L159.684 123.821C160.3 122.679 160.686 121.426 160.818 120.135C160.95 118.844 160.827 117.539 160.455 116.295C160.082 115.052 159.469 113.894 158.649 112.888C157.829 111.882 156.819 111.048 155.677 110.433C153.235 109.114 150.439 108.604 147.689 108.977C144.94 109.351 142.38 110.588 140.379 112.51L140.375 112.514C139.39 113.461 138.559 114.555 137.912 115.759L132.903 125.064Z"
    fill="#2F2E41"
  />
  <path
    d="M163.561 249.029L162.189 264.138L157.042 264.824L153.611 247.656L163.561 249.029Z"
    fill="#FFB8B8"
  />
  <path
    d="M155.67 264.824C155.67 264.824 162.188 261.391 163.561 264.138C163.561 264.138 162.531 272.379 166.648 273.409C170.765 274.439 172.481 281.65 166.648 282.337C160.816 283.023 157.042 280.963 154.984 280.963C152.925 280.963 154.984 273.752 154.984 273.752L155.67 264.824Z"
    fill="#2F2E41"
  />
  <path
    d="M122.048 249.029L123.42 264.138L128.566 264.824L131.997 247.656L122.048 249.029Z"
    fill="#FFB8B8"
  />
  <path
    d="M129.939 264.824C129.939 264.824 123.42 261.391 122.048 264.138C122.048 264.138 123.077 272.379 118.96 273.409C114.843 274.439 113.128 281.65 118.96 282.337C124.792 283.023 128.566 280.963 130.625 280.963C132.683 280.963 130.625 273.752 130.625 273.752L129.939 264.824Z"
    fill="#2F2E41"
  />
  <path
    d="M150.18 127.818C155.107 127.818 159.101 123.821 159.101 118.89C159.101 113.96 155.107 109.963 150.18 109.963C145.254 109.963 141.26 113.96 141.26 118.89C141.26 123.821 145.254 127.818 150.18 127.818Z"
    fill="#FFB8B8"
  />
  <path
    d="M121.705 136.402L128.909 147.734L137.486 147.047L151.553 148.077C151.553 148.077 152.881 145.419 153.965 142.834C154.558 141.543 155.015 140.193 155.327 138.806C155.67 136.402 150.867 133.999 150.867 133.999C150.867 133.999 150.678 133.964 150.362 133.889C149.944 133.789 149.299 133.625 148.592 133.384C146.997 132.842 145.079 131.921 144.691 130.565C144.005 128.161 149.151 124.728 149.151 124.728L142.976 118.89C142.976 118.89 137.49 126.517 130.827 128.254C130.441 128.356 130.049 128.437 129.654 128.495C129.633 128.498 129.616 128.501 129.595 128.505C122.391 129.535 121.705 136.402 121.705 136.402Z"
    fill="#FFB8B8"
  />
  <path
    d="M125.479 133.312L121.705 136.402C121.705 136.402 118.617 151.168 119.646 155.288C120.675 159.408 119.303 163.186 119.303 163.872C119.303 164.559 116.215 190.312 116.215 190.312C116.215 190.312 110.04 204.047 116.558 202.674C123.077 201.3 120.675 187.565 120.675 187.565L128.566 163.529V143.27L125.479 133.312Z"
    fill="#FFB8B8"
  />
  <path
    d="M152.582 136.059L155.327 138.119L156.699 166.963L166.992 191.686C166.992 191.686 174.539 203.704 169.736 204.047C164.933 204.391 161.845 191.686 161.845 191.686L152.582 167.993L151.21 144.987L152.582 136.059Z"
    fill="#FFB8B8"
  />
  <path
    d="M135.428 138.119C135.428 138.119 142.29 142.927 153.268 141.21C153.268 141.21 156.356 147.39 154.641 150.824C152.925 154.258 156.699 162.499 157.385 163.529C158.071 164.559 165.962 185.848 168.707 208.854C171.452 231.86 178.999 247.656 172.481 249.716C165.962 251.776 152.582 254.18 151.21 252.12C149.837 250.059 147.779 198.897 147.779 198.897L144.005 218.469C144.005 218.469 149.151 251.776 145.377 252.463C141.603 253.15 117.931 251.089 118.617 246.969C119.303 242.848 126.165 221.216 126.165 221.216C126.165 221.216 125.822 177.951 132.683 169.71C132.683 169.71 135.428 165.246 131.654 159.408C127.88 153.571 128.223 144.3 128.223 144.3C128.223 144.3 130.968 144.3 135.428 138.119Z"
    fill="#2F2E41"
  />
  <path
    d="M129.654 128.494L135.428 141.21L136.8 140.523L130.827 128.254L129.654 128.494Z"
    fill="#2F2E41"
  />
  <path
    d="M148.592 133.384L152.925 142.927L153.965 142.834L153.611 141.21L150.362 133.889C149.944 133.789 149.299 133.625 148.592 133.384Z"
    fill="#2F2E41"
  />
  <path
    d="M134.948 126.166C135.277 127.229 135.913 128.17 136.775 128.872C137.637 129.574 138.687 130.006 139.793 130.114C140.899 130.222 142.013 130.001 142.994 129.478C143.975 128.955 144.78 128.155 145.309 127.176C140.969 121.497 144.691 117.929 151.741 115.23C152.273 114.243 152.498 113.121 152.39 112.006C152.282 110.891 151.845 109.833 151.134 108.967C149.191 108.718 147.217 108.907 145.356 109.52C143.495 110.133 141.794 111.155 140.379 112.51L140.375 112.514L135.366 121.812C135.009 122.473 134.789 123.199 134.717 123.947C134.645 124.695 134.723 125.449 134.948 126.166V126.166Z"
    fill="#2F2E41"
  />
  <path
    d="M144.863 121.981C145.526 121.981 146.063 121.058 146.063 119.92C146.063 118.783 145.526 117.86 144.863 117.86C144.199 117.86 143.662 118.783 143.662 119.92C143.662 121.058 144.199 121.981 144.863 121.981Z"
    fill="#FFB8B8"
  />
  <path
    d="M148.441 116.559L158.754 121.236L160.645 117.06C160.319 115.534 159.637 114.107 158.655 112.895L151.556 109.678L148.441 116.559Z"
    fill="#2F2E41"
  />
  <path
    d="M173.23 208.695C175.761 208.695 177.813 206.642 177.813 204.109C177.813 201.575 175.761 199.522 173.23 199.522C170.699 199.522 168.648 201.575 168.648 204.109C168.648 206.642 170.699 208.695 173.23 208.695Z"
    fill="#0804B8"
  />
  <path
    d="M26.1021 235.962C27.7562 235.962 29.0971 234.62 29.0971 232.964C29.0971 231.309 27.7562 229.967 26.1021 229.967C24.448 229.967 23.1071 231.309 23.1071 232.964C23.1071 234.62 24.448 235.962 26.1021 235.962Z"
    fill="#FF6584"
  />
  <path
    d="M41.2339 248.587H40.3174V282.717H41.2339V248.587Z"
    fill="#3F3D56"
  />
  <path
    d="M40.7757 253.414C43.4391 253.414 45.5981 251.253 45.5981 248.587C45.5981 245.921 43.4391 243.761 40.7757 243.761C38.1124 243.761 35.9533 245.921 35.9533 248.587C35.9533 251.253 38.1124 253.414 40.7757 253.414Z"
    fill="#3F3D56"
  />
  <path
    d="M40.7757 269.622C40.7757 269.622 40.0868 254.793 25.964 256.516Z"
    fill="#3F3D56"
  />
</svg>