<svg
    width="295"
    height="264"
    viewBox="0 0 295 264"
    fill="none"
    xmlns="http://www.w3.org/2000/svg"
>
  <g clip-path="url(#clip0)">
    <path
      d="M35.9778 205.647L32.683 192.642C26.8409 190.164 20.8638 188.018 14.7802 186.213L14.3642 192.258L12.6773 185.599C5.13264 183.443 0 182.493 0 182.493C0 182.493 6.93301 208.879 21.4745 229.051L38.4185 232.029L25.2552 233.929C27.0851 236.132 29.0517 238.218 31.1433 240.174C52.2971 259.825 75.8584 268.841 83.769 260.312C91.6796 251.783 80.9439 228.938 59.7901 209.286C53.2322 203.194 44.9942 198.306 36.7479 194.458L35.9778 205.647Z"
      fill="#E6E6E6"
    />
    <path
      d="M67.3135 191.524L71.2103 178.686C67.4889 173.542 63.4807 168.613 59.2047 163.921L55.7268 168.88L57.722 162.307C52.377 156.558 48.4738 153.09 48.4738 153.09C48.4738 153.09 40.7811 179.264 42.8108 204.055L55.7771 215.37L43.5277 210.187C43.9563 213.019 44.5626 215.822 45.3428 218.579C53.3019 246.344 68.8148 266.252 79.9919 263.042C91.1689 259.833 93.7776 234.723 85.8185 206.957C83.3511 198.35 78.8239 189.903 73.7519 182.343L67.3135 191.524Z"
      fill="#E6E6E6"
    />
    <path
      d="M252.818 244.034L255.27 241.384C254.973 239.701 254.581 238.036 254.097 236.397L252.672 237.188L253.928 235.831C253.309 233.81 252.771 232.511 252.771 232.511C252.771 232.511 247.834 237.944 245.413 244.185L247.223 248.451L244.866 245.755C244.637 246.491 244.455 247.241 244.32 248C242.985 255.66 244.403 262.305 247.486 262.844C250.57 263.382 254.151 257.608 255.486 249.949C255.852 247.502 255.842 245.013 255.455 242.569L252.818 244.034Z"
      fill="#E6E6E6"
    />
    <path
      d="M289.089 249.275L292.556 248.275C293.172 246.68 293.696 245.052 294.129 243.399L292.5 243.339L294.275 242.827C294.789 240.777 295 239.387 295 239.387C295 239.387 287.968 241.483 282.672 245.574L282.018 250.162L281.393 246.634C280.817 247.146 280.273 247.693 279.766 248.274C274.667 254.14 272.448 260.563 274.81 262.618C277.172 264.674 283.219 261.585 288.318 255.718C289.895 253.813 291.172 251.677 292.103 249.385L289.089 249.275Z"
      fill="#E6E6E6"
    />
    <path
      d="M192.156 17.9116V244.967C192.156 249.717 190.27 254.272 186.914 257.631C183.557 260.99 179.006 262.877 174.259 262.878H86.0954C81.3479 262.879 76.7946 260.992 73.437 257.633C70.0793 254.274 68.1923 249.718 68.1909 244.967V17.9116C68.1923 13.1603 70.0793 8.60407 73.437 5.24508C76.7947 1.88608 81.3479 -0.00059907 86.0954 1.42689e-07H96.7903C96.2652 1.2925 96.0653 2.69431 96.2083 4.08222C96.3512 5.47013 96.8327 6.80164 97.6102 7.95972C98.3878 9.11781 99.4377 10.067 100.668 10.7239C101.898 11.3808 103.27 11.7252 104.664 11.727H154.929C156.324 11.7252 157.696 11.3808 158.926 10.7239C160.156 10.067 161.206 9.11784 161.983 7.95975C162.761 6.80166 163.242 5.47014 163.385 4.08223C163.528 2.69431 163.328 1.2925 162.803 5.80226e-06H174.259C179.006 0.000966529 183.557 1.88839 186.913 5.24726C190.27 8.60613 192.156 13.1615 192.156 17.9116Z"
      fill="#3F3D56"
    />
    <path
      d="M117.751 94.0396C117.751 92.4842 118.16 90.956 118.937 89.609C119.714 88.262 120.832 87.1436 122.178 86.3664C120.832 85.5881 119.305 85.1782 117.751 85.1779C116.196 85.1775 114.669 85.5868 113.323 86.3645C111.976 87.1422 110.858 88.2609 110.081 89.6082C109.304 90.9555 108.894 92.4838 108.894 94.0396C108.894 95.5954 109.304 97.1238 110.081 98.4711C110.858 99.8183 111.976 100.937 113.323 101.715C114.669 102.492 116.196 102.902 117.751 102.901C119.305 102.901 120.832 102.491 122.178 101.713C120.832 100.936 119.714 99.8173 118.937 98.4702C118.16 97.1232 117.751 95.5951 117.751 94.0396Z"
      fill="white"
    />
    <path
      d="M128.882 94.0396C128.882 92.4842 129.291 90.956 130.068 89.609C130.845 88.262 131.963 87.1436 133.31 86.3664C131.964 85.5881 130.437 85.1782 128.882 85.1779C127.328 85.1775 125.8 85.5868 124.454 86.3645C123.108 87.1422 121.99 88.2609 121.212 89.6082C120.435 90.9555 120.026 92.4838 120.026 94.0396C120.026 95.5954 120.435 97.1238 121.212 98.4711C121.99 99.8183 123.108 100.937 124.454 101.715C125.8 102.492 127.328 102.902 128.882 102.901C130.437 102.901 131.964 102.491 133.31 101.713C131.963 100.936 130.845 99.8173 130.068 98.4702C129.291 97.1232 128.882 95.5951 128.882 94.0396Z"
      fill="white"
    />
    <path
      d="M139.761 102.901C144.651 102.901 148.615 98.9339 148.615 94.0397C148.615 89.1454 144.651 85.1779 139.761 85.1779C134.871 85.1779 130.906 89.1454 130.906 94.0397C130.906 98.9339 134.871 102.901 139.761 102.901Z"
      fill="#0804B8"
    />
    <path
      d="M169.788 152.036H90.6399V152.778H169.788V152.036Z"
      fill="white"
    />
    <path
      d="M93.1395 147.404C94.5199 147.404 95.6389 146.284 95.6389 144.902C95.6389 143.521 94.5199 142.401 93.1395 142.401C91.7592 142.401 90.6401 143.521 90.6401 144.902C90.6401 146.284 91.7592 147.404 93.1395 147.404Z"
      fill="#0804B8"
    />
    <path d="M169.788 177.05H90.6399V177.792H169.788V177.05Z" fill="white" />
    <path
      d="M93.1395 172.418C94.5199 172.418 95.6389 171.298 95.6389 169.917C95.6389 168.535 94.5199 167.415 93.1395 167.415C91.7592 167.415 90.6401 168.535 90.6401 169.917C90.6401 171.298 91.7592 172.418 93.1395 172.418Z"
      fill="#0804B8"
    />
    <path
      d="M154.558 121.718H102.953C102.462 121.717 101.991 121.522 101.643 121.174C101.296 120.827 101.101 120.355 101.1 119.863V68.2159C101.101 67.7243 101.296 67.2529 101.643 66.9052C101.991 66.5576 102.462 66.362 102.953 66.3614H154.558C155.05 66.362 155.521 66.5576 155.868 66.9052C156.216 67.2529 156.411 67.7243 156.412 68.2159V119.863C156.411 120.355 156.216 120.827 155.868 121.174C155.521 121.522 155.05 121.717 154.558 121.718ZM102.953 67.1032C102.658 67.1036 102.376 67.2209 102.167 67.4295C101.959 67.6381 101.842 67.9209 101.841 68.2159V119.863C101.842 120.158 101.959 120.441 102.167 120.65C102.376 120.859 102.658 120.976 102.953 120.976H154.558C154.853 120.976 155.136 120.859 155.344 120.65C155.553 120.441 155.67 120.158 155.67 119.863V68.2159C155.67 67.9209 155.553 67.6381 155.344 67.4295C155.136 67.2209 154.853 67.1036 154.558 67.1032H102.953Z"
      fill="white"
    />
    <path
      d="M168.305 193.68H143.36C142.541 193.68 141.878 194.345 141.878 195.164V203.87C141.878 204.69 142.541 205.354 143.36 205.354H168.305C169.124 205.354 169.788 204.69 169.788 203.87V195.164C169.788 194.345 169.124 193.68 168.305 193.68Z"
      fill="#0804B8"
    />
    <path d="M295 262.515H0.294556V263.257H295V262.515Z" fill="#3F3D56" />
    <path
      d="M238.861 120.575C238.861 120.575 237.835 127.078 238.861 128.105C239.887 129.131 232.364 137.688 232.364 137.688L226.208 129.131C226.208 129.131 228.944 124.682 227.918 120.917L238.861 120.575Z"
      fill="#FFB8B8"
    />
    <path
      d="M216.292 169.518L211.844 217.093L213.552 254.058L221.76 251.663L222.104 218.463L231.681 189.713L237.493 220.859L236.808 252.348L247.068 252.69L247.753 217.779L248.955 169.02L216.292 169.518Z"
      fill="#2F2E41"
    />
    <path
      d="M237.151 251.321V258.851C237.151 258.851 235.441 264.327 240.913 263.985C246.385 263.642 246.043 261.246 246.043 261.246L243.991 252.005L237.151 251.321Z"
      fill="#2F2E41"
    />
    <path
      d="M221.42 251.321V258.851C221.42 258.851 223.13 264.327 217.658 263.985C212.186 263.642 212.528 261.246 212.528 261.246L214.58 252.005L221.42 251.321Z"
      fill="#2F2E41"
    />
    <path
      d="M233.048 124.34C237.392 124.34 240.913 120.815 240.913 116.467C240.913 112.12 237.392 108.595 233.048 108.595C228.703 108.595 225.182 112.12 225.182 116.467C225.182 120.815 228.703 124.34 233.048 124.34Z"
      fill="#FFB8B8"
    />
    <path
      d="M232.706 133.923L233.39 130.5H235.099L238.406 125.74L241.255 128.447L241.939 144.533H223.472L225.182 127.42L227.672 125.74C227.672 125.74 227.234 131.527 232.022 131.527L232.706 133.923Z"
      fill="#575A89"
    />
    <path
      d="M225.524 130.158C225.524 130.158 228.356 133.746 232.583 133.492C236.81 133.238 240.913 129.816 240.913 129.816L246.727 174.311C246.727 174.311 240.229 174.995 238.177 171.572L222.446 171.23L222.788 129.816L225.524 130.158Z"
      fill="#D0CDE1"
    />
    <path
      d="M227.833 125.15L212.87 132.554L216.632 153.775C216.632 153.775 218 161.647 216.632 164.727C215.264 167.807 213.896 188.344 213.896 188.344C213.896 188.344 229.286 190.055 227.234 165.754C225.182 141.453 227.833 125.15 227.833 125.15Z"
      fill="#2F2E41"
    />
    <path
      d="M218.684 176.364L220.736 178.418C220.736 178.418 226.892 189.028 229.628 185.263C232.364 181.498 224.84 174.995 224.84 174.995L221.42 172.257L218.684 176.364Z"
      fill="#FFB8B8"
    />
    <path
      d="M238.414 125.15L253.225 132.554L248.095 157.882C248.095 157.882 248.437 166.096 250.147 170.546C251.857 174.995 251.173 188.001 251.173 188.001C251.173 188.001 249.121 195.873 244.675 176.364C240.229 156.855 238.414 125.15 238.414 125.15Z"
      fill="#2F2E41"
    />
    <path
      d="M249.805 164.043H246.727C246.727 164.043 236.467 162.673 237.151 166.781C237.835 170.888 247.411 169.861 247.411 169.861L251.173 169.519L249.805 164.043Z"
      fill="#FFB8B8"
    />
    <path
      d="M214.922 131.527L212.528 132.554C212.528 132.554 210.134 137.688 209.792 139.399C209.45 141.111 205.346 161.647 206.372 164.043C207.398 166.438 217.658 179.102 217.658 179.102L223.472 172.942L214.922 161.304L217.316 146.587L214.922 131.527Z"
      fill="#2F2E41"
    />
    <path
      d="M248.095 131.869L252.62 132.252L253.567 132.554C253.567 132.554 263.142 158.566 261.09 162.674C259.039 166.781 250.147 174.311 250.147 174.311L247.753 163.7L252.199 159.593L247.753 145.902L248.095 131.869Z"
      fill="#2F2E41"
    />
    <path
      d="M239.702 110.397C239.702 110.397 241.76 106.533 237.233 106.181C237.233 106.181 233.117 103.722 229.825 106.533C229.825 106.533 226.944 105.83 226.121 107.938C226.121 107.938 225.709 106.884 226.944 106.181C226.944 106.181 224.063 105.479 224.063 108.992C224.063 108.992 222.828 112.505 224.063 115.667C225.298 118.829 225.709 119.18 225.709 119.18C225.709 119.18 223.68 112.551 228.619 112.2C233.558 111.849 239.085 108.816 239.496 112.681C239.908 116.545 240.731 117.599 240.731 117.599C240.731 117.599 244.435 111.978 239.702 110.397Z"
      fill="#2F2E41"
    />
  </g>
  <defs>
    <clipPath id="clip0">
      <rect width="295" height="264" fill="white" />
    </clipPath>
  </defs>
</svg>